<mxfile host="app.diagrams.net" agent="Mozilla/5.0 (X11; Linux x86_64) AppleWebKit/537.36 (KHTML, like Gecko) Chrome/127.0.0.0 Safari/537.36" version="24.7.7">
  <diagram name="Pagina-1" id="o5-Qir7ogof50g8Nl0QG">
    <mxGraphModel dx="819" dy="416" grid="1" gridSize="10" guides="1" tooltips="1" connect="1" arrows="1" fold="1" page="1" pageScale="1" pageWidth="827" pageHeight="1169" math="0" shadow="0">
      <root>
        <mxCell id="0" />
        <mxCell id="1" parent="0" />
        <mxCell id="MvrPvoqk9f_-cJTCABY3-2" value="&lt;p style=&quot;line-height: 120%;&quot;&gt;&lt;br&gt;&lt;/p&gt;" style="html=1;dropTarget=0;whiteSpace=wrap;align=center;shadow=1;" vertex="1" parent="1">
          <mxGeometry x="110" y="130" width="260" height="260" as="geometry" />
        </mxCell>
        <mxCell id="MvrPvoqk9f_-cJTCABY3-3" value="" style="shape=module;jettyWidth=8;jettyHeight=4;shadow=1;" vertex="1" parent="MvrPvoqk9f_-cJTCABY3-2">
          <mxGeometry x="1" width="20" height="20" relative="1" as="geometry">
            <mxPoint x="-27" y="7" as="offset" />
          </mxGeometry>
        </mxCell>
        <mxCell id="MvrPvoqk9f_-cJTCABY3-8" value="" style="rounded=0;orthogonalLoop=1;jettySize=auto;html=1;endArrow=halfCircle;endFill=0;endSize=6;strokeWidth=1;sketch=0;startSize=8;fontSize=26;shadow=1;" edge="1" parent="1">
          <mxGeometry relative="1" as="geometry">
            <mxPoint x="375" y="210" as="sourcePoint" />
            <mxPoint x="425" y="210" as="targetPoint" />
          </mxGeometry>
        </mxCell>
        <mxCell id="MvrPvoqk9f_-cJTCABY3-9" value="" style="rounded=0;orthogonalLoop=1;jettySize=auto;html=1;endArrow=oval;endFill=0;sketch=0;sourcePerimeterSpacing=0;targetPerimeterSpacing=0;endSize=10;fontSize=26;entryX=0.462;entryY=0.808;entryDx=0;entryDy=0;entryPerimeter=0;exitX=0.414;exitY=-0.071;exitDx=0;exitDy=0;exitPerimeter=0;shadow=1;" edge="1" target="MvrPvoqk9f_-cJTCABY3-2" parent="1" source="MvrPvoqk9f_-cJTCABY3-19">
          <mxGeometry relative="1" as="geometry">
            <mxPoint x="230" y="360" as="sourcePoint" />
            <mxPoint x="240" y="390" as="targetPoint" />
            <Array as="points" />
          </mxGeometry>
        </mxCell>
        <mxCell id="MvrPvoqk9f_-cJTCABY3-10" value="" style="ellipse;whiteSpace=wrap;html=1;align=center;aspect=fixed;fillColor=none;strokeColor=none;resizable=0;perimeter=centerPerimeter;rotatable=0;allowArrows=0;points=[];outlineConnect=1;fontSize=26;shadow=1;" vertex="1" parent="1">
          <mxGeometry x="490" y="470" width="10" height="10" as="geometry" />
        </mxCell>
        <mxCell id="MvrPvoqk9f_-cJTCABY3-11" value="" style="html=1;points=[[0,0,0,0,5],[0,1,0,0,-5],[1,0,0,0,5],[1,1,0,0,-5]];perimeter=orthogonalPerimeter;outlineConnect=0;targetShapes=umlLifeline;portConstraint=eastwest;newEdgeStyle={&quot;curved&quot;:0,&quot;rounded&quot;:0};shadow=1;" vertex="1" parent="1">
          <mxGeometry x="365" y="200" width="10" height="20" as="geometry" />
        </mxCell>
        <mxCell id="MvrPvoqk9f_-cJTCABY3-13" value="«component»&lt;br&gt;&lt;b&gt;Business Logic&lt;/b&gt;" style="html=1;dropTarget=0;whiteSpace=wrap;shadow=1;" vertex="1" parent="1">
          <mxGeometry x="140" y="216" width="180" height="90" as="geometry" />
        </mxCell>
        <mxCell id="MvrPvoqk9f_-cJTCABY3-14" value="" style="shape=module;jettyWidth=8;jettyHeight=4;shadow=1;" vertex="1" parent="MvrPvoqk9f_-cJTCABY3-13">
          <mxGeometry x="1" width="20" height="20" relative="1" as="geometry">
            <mxPoint x="-27" y="7" as="offset" />
          </mxGeometry>
        </mxCell>
        <mxCell id="MvrPvoqk9f_-cJTCABY3-15" value="&amp;lt;&amp;lt;component&amp;gt;&amp;gt;&lt;br&gt;&lt;b&gt;Service&lt;/b&gt;" style="text;html=1;align=center;verticalAlign=middle;whiteSpace=wrap;rounded=0;shadow=1;" vertex="1" parent="1">
          <mxGeometry x="175" y="150" width="130" height="30" as="geometry" />
        </mxCell>
        <mxCell id="MvrPvoqk9f_-cJTCABY3-16" value="" style="rounded=0;orthogonalLoop=1;jettySize=auto;html=1;endArrow=halfCircle;endFill=0;endSize=6;strokeWidth=1;sketch=0;startSize=8;fontSize=26;exitX=0.5;exitY=1;exitDx=0;exitDy=0;shadow=1;" edge="1" parent="1" source="MvrPvoqk9f_-cJTCABY3-13">
          <mxGeometry relative="1" as="geometry">
            <mxPoint x="230" y="290" as="sourcePoint" />
            <mxPoint x="230" y="340" as="targetPoint" />
          </mxGeometry>
        </mxCell>
        <mxCell id="MvrPvoqk9f_-cJTCABY3-19" value="" style="html=1;points=[[0,0,0,0,5],[0,1,0,0,-5],[1,0,0,0,5],[1,1,0,0,-5]];perimeter=orthogonalPerimeter;outlineConnect=0;targetShapes=umlLifeline;portConstraint=eastwest;newEdgeStyle={&quot;curved&quot;:0,&quot;rounded&quot;:0};shadow=1;" vertex="1" parent="1">
          <mxGeometry x="231" y="383" width="20" height="10" as="geometry" />
        </mxCell>
        <mxCell id="MvrPvoqk9f_-cJTCABY3-21" value="" style="html=1;points=[[0,0,0,0,5],[0,1,0,0,-5],[1,0,0,0,5],[1,1,0,0,-5]];perimeter=orthogonalPerimeter;outlineConnect=0;targetShapes=umlLifeline;portConstraint=eastwest;newEdgeStyle={&quot;curved&quot;:0,&quot;rounded&quot;:0};shadow=1;" vertex="1" parent="1">
          <mxGeometry x="365" y="300" width="10" height="20" as="geometry" />
        </mxCell>
        <mxCell id="MvrPvoqk9f_-cJTCABY3-22" value="«component»&lt;br&gt;&lt;b&gt;Event Broker&lt;/b&gt;" style="html=1;dropTarget=0;whiteSpace=wrap;shadow=1;" vertex="1" parent="1">
          <mxGeometry x="476" y="270" width="160" height="80" as="geometry" />
        </mxCell>
        <mxCell id="MvrPvoqk9f_-cJTCABY3-23" value="" style="shape=module;jettyWidth=8;jettyHeight=4;shadow=1;" vertex="1" parent="MvrPvoqk9f_-cJTCABY3-22">
          <mxGeometry x="1" width="20" height="20" relative="1" as="geometry">
            <mxPoint x="-27" y="7" as="offset" />
          </mxGeometry>
        </mxCell>
        <mxCell id="MvrPvoqk9f_-cJTCABY3-24" value="" style="rounded=0;orthogonalLoop=1;jettySize=auto;html=1;endArrow=halfCircle;endFill=0;endSize=6;strokeWidth=1;sketch=0;exitX=0;exitY=0.5;exitDx=0;exitDy=0;shadow=1;" edge="1" parent="1" source="MvrPvoqk9f_-cJTCABY3-22">
          <mxGeometry relative="1" as="geometry">
            <mxPoint x="459" y="299" as="sourcePoint" />
            <mxPoint x="419" y="310" as="targetPoint" />
          </mxGeometry>
        </mxCell>
        <mxCell id="MvrPvoqk9f_-cJTCABY3-25" value="" style="rounded=0;orthogonalLoop=1;jettySize=auto;html=1;endArrow=oval;endFill=0;sketch=0;sourcePerimeterSpacing=0;targetPerimeterSpacing=0;endSize=10;shadow=1;" edge="1" target="MvrPvoqk9f_-cJTCABY3-26" parent="1" source="MvrPvoqk9f_-cJTCABY3-21">
          <mxGeometry relative="1" as="geometry">
            <mxPoint x="460" y="339" as="sourcePoint" />
          </mxGeometry>
        </mxCell>
        <mxCell id="MvrPvoqk9f_-cJTCABY3-26" value="" style="ellipse;whiteSpace=wrap;html=1;align=center;aspect=fixed;fillColor=none;strokeColor=none;resizable=0;perimeter=centerPerimeter;rotatable=0;allowArrows=0;points=[];outlineConnect=1;shadow=1;" vertex="1" parent="1">
          <mxGeometry x="414" y="305" width="10" height="10" as="geometry" />
        </mxCell>
        <mxCell id="MvrPvoqk9f_-cJTCABY3-27" value="«component»&lt;br&gt;&lt;b&gt;Microservice DB&lt;/b&gt;" style="html=1;dropTarget=0;whiteSpace=wrap;shadow=1;" vertex="1" parent="1">
          <mxGeometry x="160" y="475" width="160" height="80" as="geometry" />
        </mxCell>
        <mxCell id="MvrPvoqk9f_-cJTCABY3-28" value="" style="shape=module;jettyWidth=8;jettyHeight=4;shadow=1;" vertex="1" parent="MvrPvoqk9f_-cJTCABY3-27">
          <mxGeometry x="1" width="20" height="20" relative="1" as="geometry">
            <mxPoint x="-27" y="7" as="offset" />
          </mxGeometry>
        </mxCell>
        <mxCell id="MvrPvoqk9f_-cJTCABY3-30" value="" style="rounded=0;orthogonalLoop=1;jettySize=auto;html=1;endArrow=halfCircle;endFill=0;endSize=6;strokeWidth=1;sketch=0;exitX=0.5;exitY=0;exitDx=0;exitDy=0;shadow=1;" edge="1" target="MvrPvoqk9f_-cJTCABY3-32" parent="1" source="MvrPvoqk9f_-cJTCABY3-27">
          <mxGeometry relative="1" as="geometry">
            <mxPoint x="260" y="435" as="sourcePoint" />
          </mxGeometry>
        </mxCell>
        <mxCell id="MvrPvoqk9f_-cJTCABY3-31" value="" style="rounded=0;orthogonalLoop=1;jettySize=auto;html=1;endArrow=oval;endFill=0;sketch=0;sourcePerimeterSpacing=0;targetPerimeterSpacing=0;endSize=10;shadow=1;" edge="1" target="MvrPvoqk9f_-cJTCABY3-32" parent="1" source="MvrPvoqk9f_-cJTCABY3-19">
          <mxGeometry relative="1" as="geometry">
            <mxPoint x="220" y="505" as="sourcePoint" />
          </mxGeometry>
        </mxCell>
        <mxCell id="MvrPvoqk9f_-cJTCABY3-32" value="" style="ellipse;whiteSpace=wrap;html=1;align=center;aspect=fixed;fillColor=none;strokeColor=none;resizable=0;perimeter=centerPerimeter;rotatable=0;allowArrows=0;points=[];outlineConnect=1;shadow=1;" vertex="1" parent="1">
          <mxGeometry x="235" y="430" width="10" height="10" as="geometry" />
        </mxCell>
        <mxCell id="MvrPvoqk9f_-cJTCABY3-34" value="" style="rounded=0;orthogonalLoop=1;jettySize=auto;html=1;endArrow=halfCircle;endFill=0;endSize=6;strokeWidth=1;sketch=0;exitX=1;exitY=0.5;exitDx=0;exitDy=0;shadow=1;" edge="1" parent="1" source="MvrPvoqk9f_-cJTCABY3-13">
          <mxGeometry relative="1" as="geometry">
            <mxPoint x="360" y="235" as="sourcePoint" />
            <mxPoint x="340" y="210" as="targetPoint" />
          </mxGeometry>
        </mxCell>
        <mxCell id="MvrPvoqk9f_-cJTCABY3-35" value="" style="rounded=0;orthogonalLoop=1;jettySize=auto;html=1;endArrow=oval;endFill=0;sketch=0;sourcePerimeterSpacing=0;targetPerimeterSpacing=0;endSize=10;shadow=1;" edge="1" parent="1" source="MvrPvoqk9f_-cJTCABY3-11">
          <mxGeometry relative="1" as="geometry">
            <mxPoint x="320" y="235" as="sourcePoint" />
            <mxPoint x="340" y="210" as="targetPoint" />
          </mxGeometry>
        </mxCell>
        <mxCell id="MvrPvoqk9f_-cJTCABY3-36" value="" style="ellipse;whiteSpace=wrap;html=1;align=center;aspect=fixed;fillColor=none;strokeColor=none;resizable=0;perimeter=centerPerimeter;rotatable=0;allowArrows=0;points=[];outlineConnect=1;shadow=1;" vertex="1" parent="1">
          <mxGeometry x="335" y="230" width="10" height="10" as="geometry" />
        </mxCell>
        <mxCell id="MvrPvoqk9f_-cJTCABY3-37" value="" style="rounded=0;orthogonalLoop=1;jettySize=auto;html=1;endArrow=halfCircle;endFill=0;endSize=6;strokeWidth=1;sketch=0;exitX=1;exitY=0.5;exitDx=0;exitDy=0;shadow=1;" edge="1" target="MvrPvoqk9f_-cJTCABY3-39" parent="1" source="MvrPvoqk9f_-cJTCABY3-13">
          <mxGeometry relative="1" as="geometry">
            <mxPoint x="360" y="335" as="sourcePoint" />
          </mxGeometry>
        </mxCell>
        <mxCell id="MvrPvoqk9f_-cJTCABY3-38" value="" style="rounded=0;orthogonalLoop=1;jettySize=auto;html=1;endArrow=oval;endFill=0;sketch=0;sourcePerimeterSpacing=0;targetPerimeterSpacing=0;endSize=10;shadow=1;" edge="1" target="MvrPvoqk9f_-cJTCABY3-39" parent="1" source="MvrPvoqk9f_-cJTCABY3-21">
          <mxGeometry relative="1" as="geometry">
            <mxPoint x="320" y="335" as="sourcePoint" />
          </mxGeometry>
        </mxCell>
        <mxCell id="MvrPvoqk9f_-cJTCABY3-39" value="" style="ellipse;whiteSpace=wrap;html=1;align=center;aspect=fixed;fillColor=none;strokeColor=none;resizable=0;perimeter=centerPerimeter;rotatable=0;allowArrows=0;points=[];outlineConnect=1;shadow=1;" vertex="1" parent="1">
          <mxGeometry x="335" y="305" width="10" height="10" as="geometry" />
        </mxCell>
        <mxCell id="MvrPvoqk9f_-cJTCABY3-41" value="&lt;font style=&quot;font-size: 7px;&quot;&gt;REST API&lt;/font&gt;" style="text;html=1;align=center;verticalAlign=middle;whiteSpace=wrap;rounded=0;shadow=1;" vertex="1" parent="1">
          <mxGeometry x="400" y="180" width="50" height="30" as="geometry" />
        </mxCell>
      </root>
    </mxGraphModel>
  </diagram>
</mxfile>
